<?xml version="1.0" standalone="no"?>
<!DOCTYPE svg PUBLIC "-//W3C//DTD SVG 20010904//EN"
 "http://www.w3.org/TR/2001/REC-SVG-20010904/DTD/svg10.dtd">
<svg version="1.0" xmlns="http://www.w3.org/2000/svg"
 width="512.000000pt" height="512.000000pt" viewBox="0 0 512.000000 512.000000"
 preserveAspectRatio="xMidYMid meet">
<metadata>
Created by potrace 1.11, written by Peter Selinger 2001-2013
</metadata>
<g transform="translate(0.000000,512.000000) scale(0.100000,-0.100000)"
fill="#000000" stroke="none">
<path d="M0 2560 l0 -2560 2143 2 c1178 0 2129 3 2112 5 -16 1 -53 6 -81 9
-43 4 -53 9 -57 27 -23 92 -30 114 -42 127 -7 8 -15 24 -17 35 -2 16 3 21 32
23 68 7 136 -16 174 -59 21 -22 36 -50 36 -63 0 -14 5 -28 11 -31 6 -4 9 -21
7 -38 l-3 -32 403 -3 402 -2 0 2560 0 2560 -2560 0 -2560 0 0 -2560z m2598
2313 c-8 -10 -14 -11 -16 -4 -3 9 -8 9 -18 0 -17 -14 -27 -8 -19 13 4 10 16
13 36 10 25 -4 28 -7 17 -19z m226 -22 c3 -5 -1 -11 -9 -15 -9 -3 -15 0 -15 9
0 16 16 20 24 6z m-434 -355 c0 -2 -7 -7 -16 -10 -8 -3 -12 -2 -9 4 6 10 25
14 25 6z m84 -10 c40 -7 45 -16 9 -16 -17 0 -37 8 -44 17 -8 9 -9 14 -3 10 6
-3 23 -8 38 -11z m111 -26 c13 -6 15 -9 5 -9 -8 0 -22 4 -30 9 -18 12 -2 12
25 0z m352 -54 c-1 -6 7 -11 18 -11 16 0 20 -7 20 -38 0 -23 5 -37 13 -37 10
0 17 20 13 43 -2 13 44 7 67 -9 12 -8 26 -12 32 -9 6 4 7 -1 3 -11 -4 -11 -3
-15 4 -11 14 9 82 -33 83 -50 0 -7 7 -13 15 -13 8 0 31 -22 51 -49 20 -27 42
-47 49 -45 7 3 15 -2 18 -10 4 -11 1 -16 -11 -16 -14 0 -18 -11 -20 -55 -3
-58 11 -75 23 -28 4 17 2 29 -4 31 -17 6 -2 22 18 22 10 0 27 -12 37 -27 17
-27 17 -28 -2 -13 -10 8 -22 20 -27 25 -4 6 -5 -5 -2 -24 3 -18 2 -38 -3 -45
-4 -6 -7 -17 -6 -23 1 -7 2 -17 3 -23 0 -5 7 -10 15 -10 16 0 33 -77 23 -102
-3 -7 -6 2 -6 20 -1 41 -51 97 -51 56 0 -8 4 -13 8 -10 4 2 8 -28 8 -67 0 -86
11 -150 25 -142 5 4 9 -1 9 -9 0 -21 32 -86 42 -86 4 0 8 5 8 12 0 6 3 8 6 5
4 -4 2 -12 -4 -19 -13 -17 -13 -120 0 -112 6 4 8 -2 3 -15 -3 -11 -3 -21 2
-21 13 1 75 89 82 118 10 36 33 49 65 34 31 -14 41 -36 62 -145 l16 -82 -52
-160 c-28 -88 -52 -176 -53 -196 -1 -21 -10 -46 -21 -58 -25 -27 -80 -45 -122
-38 -31 5 -34 4 -34 -19 0 -58 -75 -346 -110 -419 -31 -68 -50 -116 -50 -130
0 -9 -4 -13 -10 -10 -6 4 -10 -10 -10 -34 0 -22 -4 -43 -10 -46 -5 -3 -15 -15
-20 -26 -8 -15 -7 -19 4 -19 16 0 46 53 46 80 0 10 7 23 15 30 8 7 15 21 15
31 0 10 4 20 9 24 11 6 8 -29 -19 -260 -22 -182 -31 -148 80 -305 37 -52 87
-133 109 -179 23 -45 44 -81 46 -80 1 2 -1 30 -6 63 -5 32 -8 61 -5 63 8 8
110 -158 143 -233 18 -39 39 -108 47 -153 16 -83 36 -134 58 -148 40 -26 41
-41 4 -86 -20 -24 -36 -48 -36 -54 0 -5 -6 -18 -14 -28 -13 -18 -16 -16 -49
35 -19 30 -46 87 -60 125 -36 100 -64 162 -76 169 -6 4 -14 -9 -20 -31 -8 -34
-13 -70 -26 -198 -10 -98 -47 -293 -65 -339 -28 -76 -71 -309 -70 -386 l1 -25
19 25 c11 14 25 31 30 37 6 7 8 13 4 13 -4 0 2 8 12 18 35 32 93 109 87 116
-4 3 1 6 10 6 9 0 16 6 14 12 -1 7 9 14 23 16 24 4 23 2 -11 -31 -20 -20 -34
-38 -31 -41 3 -3 0 -6 -6 -6 -6 0 -13 -9 -17 -19 -3 -11 -19 -34 -35 -53 -16
-18 -30 -36 -30 -40 0 -5 -7 -8 -16 -8 -8 0 -12 -4 -9 -10 3 -5 2 -10 -2 -10
-12 0 -14 -39 -4 -77 7 -24 6 -33 -5 -37 -8 -3 -14 -12 -14 -20 0 -8 -5 -16
-11 -18 -16 -5 -1 -48 16 -48 9 0 15 15 17 43 2 35 7 22 26 -74 25 -130 26
-139 13 -139 -5 0 -9 6 -8 13 1 43 -4 57 -22 57 -11 0 -23 -4 -26 -10 -3 -5
-1 -10 5 -10 6 0 8 -4 5 -10 -3 -5 -1 -10 5 -10 6 0 8 -5 4 -11 -3 -6 0 -15 7
-20 11 -7 10 -9 -4 -9 -22 0 -30 22 -51 145 -10 58 -26 111 -37 127 -10 15
-19 34 -19 43 0 8 -4 15 -10 15 -5 0 -7 7 -4 15 4 8 1 15 -6 15 -6 0 -8 5 -5
10 3 6 1 10 -5 10 -6 0 -9 4 -6 8 3 5 -2 18 -12 28 -9 11 -18 26 -20 33 -3 15
-62 91 -71 91 -3 0 -30 23 -60 50 -29 28 -58 50 -63 50 -6 0 -8 7 -5 14 4 11
1 13 -10 9 -12 -5 -14 -1 -9 14 6 19 0 29 -54 97 -8 10 -21 24 -28 30 -7 6
-42 47 -78 91 -71 86 -132 152 -185 200 -66 59 -146 125 -153 125 -4 0 0 -13
9 -30 28 -54 18 -67 -22 -27 -32 33 -50 42 -75 38 -20 -3 -86 132 -88 179 -1
26 -49 121 -79 156 -35 39 -101 150 -101 168 0 7 -11 23 -25 36 -39 36 -119
204 -160 335 -21 66 -41 125 -45 130 -8 11 -18 114 -26 270 -6 119 3 112 40
-26 49 -180 63 -224 88 -270 16 -30 30 -44 37 -40 7 5 9 15 5 26 -5 13 -4 16
4 11 7 -4 12 -14 12 -22 0 -17 16 -19 23 -1 4 9 8 8 16 -3 5 -8 7 -17 3 -20
-12 -9 -11 -40 2 -39 33 4 48 -5 73 -43 16 -24 31 -45 36 -46 4 -2 5 -8 2 -12
-3 -5 0 -12 6 -16 8 -4 9 -3 5 4 -14 23 5 11 49 -30 56 -55 73 -68 81 -68 11
0 52 -48 46 -54 -3 -3 2 -6 11 -6 9 0 33 -16 54 -35 21 -19 42 -35 46 -35 15
0 87 -63 92 -82 5 -14 16 -18 51 -18 24 0 44 3 44 8 0 4 27 18 61 32 56 23 84
48 84 77 0 6 12 25 27 41 28 31 63 92 53 92 -3 0 10 14 30 31 19 17 35 37 35
45 0 8 9 14 19 14 13 0 24 13 35 40 9 22 23 40 31 40 8 0 15 4 15 9 0 5 9 13
21 16 11 4 18 12 16 18 -4 14 17 37 34 37 7 0 10 3 7 6 -4 3 3 15 14 26 15 15
17 23 9 31 -9 9 -14 8 -21 -3 -5 -8 -12 -11 -15 -8 -4 4 -18 3 -32 -3 -20 -7
-24 -6 -22 9 3 35 -1 67 -9 56 -4 -6 -15 -13 -24 -17 -10 -3 -18 -13 -18 -22
0 -8 -7 -15 -15 -15 -8 0 -24 -9 -35 -20 -11 -11 -20 -17 -20 -12 0 4 -5 -1
-11 -11 -6 -9 -14 -15 -20 -12 -5 4 -14 -5 -20 -19 -7 -14 -16 -23 -21 -20
-10 7 -30 -13 -45 -46 -9 -20 -12 -21 -12 -6 -1 16 -3 17 -18 5 -11 -10 -14
-10 -9 -1 4 6 3 12 -2 12 -6 0 -13 -7 -16 -16 -3 -9 -12 -14 -20 -11 -7 3 -19
0 -25 -6 -8 -8 -14 -8 -19 -2 -4 6 -16 10 -27 10 -11 0 -25 3 -32 8 -6 4 -14
3 -18 -3 -3 -5 -17 -7 -29 -4 -17 4 -25 0 -31 -13 -6 -16 -8 -15 -17 7 -7 20
-11 22 -18 10 -8 -13 -10 -12 -10 3 0 10 -4 15 -10 12 -5 -3 -10 -1 -10 4 0 6
-3 10 -7 10 -20 -3 -29 3 -41 31 -11 25 -44 47 -63 43 -3 -1 -5 8 -5 20 1 15
-5 22 -16 21 -11 -1 -18 5 -18 17 0 23 -8 24 -32 2 -19 -17 -26 -5 -8 13 16
16 3 39 -31 51 -17 7 -28 16 -26 20 3 5 -2 14 -12 20 -14 9 -21 7 -35 -8 -19
-23 -21 -33 -3 -23 9 5 9 4 0 -6 -13 -14 -33 -5 -33 16 0 8 -6 14 -14 14 -8 0
-18 5 -22 12 -4 7 -3 8 5 4 9 -6 10 0 5 21 -7 29 -43 82 -50 73 -8 -10 -34 39
-28 54 3 9 2 16 -3 16 -6 0 -18 16 -28 35 -11 19 -28 35 -39 37 -25 4 -85 86
-70 96 5 4 7 20 3 37 -4 17 -7 26 -8 21 0 -5 -7 -3 -15 4 -8 6 -12 18 -9 26 3
8 0 14 -6 14 -6 0 -10 3 -10 8 1 4 1 18 0 32 l-2 25 -15 -25 c-15 -25 -15 -25
-8 9 4 22 3 31 -4 27 -6 -4 -8 2 -5 14 4 16 2 19 -11 14 -11 -4 -16 -2 -14 6
2 7 -3 15 -10 17 -8 3 -10 -1 -6 -14 5 -13 4 -15 -5 -7 -14 12 -4 47 11 38 6
-4 6 1 -1 13 -7 15 -7 23 2 32 9 10 8 14 -4 21 -18 10 -44 92 -36 113 2 7 -1
21 -9 31 -8 12 -10 25 -4 35 14 26 4 101 -16 115 -15 12 -15 13 0 19 20 8 20
26 1 63 -8 16 -15 48 -15 71 0 23 -4 53 -10 67 -7 18 -5 37 5 67 8 23 15 57
15 77 0 19 3 32 6 29 9 -8 44 37 44 56 0 9 6 22 14 29 7 8 17 25 21 38 7 21 6
23 -7 12 -14 -11 -16 -4 -17 55 -1 36 -6 72 -12 79 -7 8 -7 14 1 19 7 4 9 17
6 29 -6 24 15 106 48 181 23 53 100 138 129 142 26 4 57 22 57 33 0 6 7 10 16
10 10 0 14 -6 10 -15 -3 -10 1 -15 14 -15 24 0 37 -20 19 -31 -21 -13 15 -22
62 -16 61 8 112 39 124 75 6 17 15 35 19 39 5 4 6 0 3 -9 -8 -24 -5 -23 29 8
17 17 30 22 32 15 3 -9 7 -9 18 0 29 24 12 -5 -27 -46 -23 -24 -53 -46 -67
-50 -21 -5 -23 -8 -11 -16 31 -20 69 -9 114 32 32 30 42 45 35 54 -6 8 -6 15
2 23 15 15 62 16 53 2 -3 -5 2 -10 12 -10 15 0 16 -2 3 -11 -11 -8 -8 -9 15
-5 17 3 57 8 90 12 33 3 76 8 95 11 19 2 51 6 70 8 19 1 47 8 63 14 23 9 27 8
27 -6 0 -15 3 -14 22 4 20 21 23 21 49 6 15 -9 27 -21 26 -27z m-684 10 c-4
-5 1 -7 11 -3 14 6 15 4 4 -16 -10 -19 -13 -20 -16 -4 -4 20 -11 21 -46 7 -31
-11 -35 3 -5 16 27 13 59 12 52 0z m1107 -280 c9 -12 8 -15 -8 -13 -12 0 -18
6 -15 14 6 16 8 16 23 -1z m35 -246 c-3 -5 -1 -10 5 -10 6 0 8 -5 4 -11 -4 -8
-9 -7 -15 2 -7 12 -3 29 7 29 3 0 2 -4 -1 -10z m97 -66 c-6 -35 -12 -29 -12
14 0 23 3 32 9 24 4 -7 6 -24 3 -38z m-96 5 c0 -10 -3 -16 -7 -13 -4 2 -10 -2
-12 -8 -3 -7 -6 -1 -6 13 -1 15 4 26 12 26 7 0 13 -8 13 -18z m-1857 -235 c4
3 15 -8 25 -25 l17 -30 -32 20 c-17 11 -38 17 -45 14 -17 -6 -18 19 -2 35 9 9
14 9 21 -3 4 -9 12 -13 16 -11z m-38 -111 c12 -59 28 -68 29 -17 0 11 6 29 14
39 13 18 14 18 50 -4 61 -38 84 -84 46 -94 -17 -4 -20 -14 -20 -71 0 -76 17
-88 50 -34 l19 31 6 -29 c4 -16 9 -36 12 -44 2 -8 6 -37 9 -65 6 -71 20 -154
28 -162 9 -9 -16 -61 -31 -67 -21 -8 -108 20 -124 40 -7 9 -16 41 -20 72 -3
32 -23 99 -44 151 -41 104 -61 218 -50 289 4 26 9 43 10 37 2 -5 9 -38 16 -72z
m369 -755 c0 -5 -4 -8 -10 -8 -5 0 -10 10 -10 23 0 18 2 19 10 7 5 -8 10 -18
10 -22z m250 -412 c0 -11 -19 -15 -25 -6 -3 5 1 10 9 10 9 0 16 -2 16 -4z
m130 -30 c0 -8 -4 -18 -10 -21 -5 -3 -10 -2 -10 3 0 6 -8 9 -17 7 -10 -1 -12
0 -5 2 6 3 12 9 12 14 0 5 7 9 15 9 8 0 15 -6 15 -14z m825 -114 c-3 -3 -11 0
-18 7 -9 10 -8 11 6 5 10 -3 15 -9 12 -12z m-365 -446 c0 -2 -7 -7 -16 -10 -8
-3 -12 -2 -9 4 6 10 25 14 25 6z m-921 -228 c49 -50 75 -128 68 -202 -8 -89
-90 -374 -135 -466 -30 -62 -90 -45 -92 26 -1 21 3 57 9 79 6 22 11 87 11 144
1 58 10 152 21 215 13 71 18 128 14 160 -5 38 -2 52 11 67 26 29 49 23 93 -23z
m2224 4 c35 -33 62 -84 93 -176 17 -49 37 -83 69 -118 61 -64 73 -97 89 -236
14 -119 36 -179 122 -343 27 -52 30 -79 12 -97 -15 -15 -38 -16 -38 -1 0 6
-11 20 -25 31 -14 11 -37 42 -51 70 -14 27 -49 76 -79 109 -30 32 -56 64 -57
71 -1 7 -2 69 -3 138 0 69 -5 137 -9 153 -7 22 -5 27 8 27 9 0 16 4 16 8 0 4
-56 60 -125 123 l-124 114 -1 57 c0 31 5 69 10 83 9 23 14 26 38 20 15 -3 40
-18 55 -33z m-1563 -457 c21 -25 -3 -41 -28 -19 -12 10 -19 21 -16 26 8 13 30
9 44 -7z m22 -47 c-7 -7 -12 -8 -12 -2 0 14 12 26 19 19 2 -3 -1 -11 -7 -17z
m46 -11 c13 4 14 3 6 -6 -15 -17 -44 -3 -36 17 6 16 7 16 10 0 2 -11 9 -15 20
-11z m1257 13 c9 14 35 13 35 -2 0 -13 -29 -48 -41 -48 -4 0 -9 10 -11 23 -2
12 -9 21 -16 19 -8 -1 -11 2 -7 8 5 8 11 8 20 0 9 -8 15 -8 20 0z m-1233 -42
c-7 -7 -12 -8 -12 -2 0 14 12 26 19 19 2 -3 -1 -11 -7 -17z m39 -12 c10 6 13
-9 3 -19 -9 -9 -33 16 -26 28 3 5 7 4 10 -3 2 -7 8 -10 13 -6z m1166 -13 c0
-10 -4 -23 -9 -30 -13 -16 -38 -5 -31 13 3 9 12 13 19 10 8 -3 13 -2 13 2 -2
10 1 22 4 22 2 0 4 -8 4 -17z m-1137 -13 c0 -5 -5 -10 -11 -10 -5 0 -7 5 -4
10 3 6 8 10 11 10 2 0 4 -4 4 -10z m22 -22 c-7 -7 -12 -8 -12 -2 0 14 12 26
19 19 2 -3 -1 -11 -7 -17z m28 -8 c0 -5 -5 -10 -11 -10 -5 0 -7 5 -4 10 3 6 8
10 11 10 2 0 4 -4 4 -10z m1060 -7 c-1 -16 -48 -65 -58 -62 -15 5 26 69 44 69
8 0 14 -3 14 -7z m-1026 -24 c6 1 9 -8 4 -10 -12 -3 -37 15 -32 23 4 6 9 6 14
-2 4 -6 10 -11 14 -11z m47 -24 c10 7 13 -8 3 -18 -11 -10 -36 22 -27 35 5 10
8 8 11 -5 2 -9 8 -15 13 -12z m40 -29 c5 3 9 -2 9 -11 0 -9 5 -13 10 -10 12 7
42 -20 33 -29 -10 -10 -25 -7 -18 4 3 6 0 10 -8 10 -19 0 -58 35 -50 44 4 4 9
2 11 -3 2 -6 8 -9 13 -5z m866 -15 c-48 -65 -62 -81 -75 -81 -10 0 -7 7 9 23
13 13 25 30 27 38 2 7 10 19 17 25 8 6 12 14 8 18 -4 4 0 4 10 1 14 -6 15 -10
4 -24z m-795 -53 c-7 -7 -12 -8 -12 -2 0 14 12 26 19 19 2 -3 -1 -11 -7 -17z
m45 -11 c12 5 15 2 10 -10 -4 -11 -2 -14 9 -10 7 3 14 0 14 -6 0 -6 -6 -11
-13 -11 -19 0 -58 35 -50 44 4 4 9 3 11 -3 2 -5 11 -7 19 -4z m657 -44 c-10
-7 -25 -13 -33 -12 -12 0 -10 3 4 9 11 5 16 9 12 9 -5 1 -6 5 -2 11 3 5 13 6
22 3 14 -6 14 -8 -3 -20z m-34 -43 c-6 -11 -20 -20 -32 -20 -20 0 -21 1 -3 20
10 11 24 20 32 20 11 0 11 -4 3 -20z m445 -440 c4 -12 21 -21 52 -27 l47 -8
17 -65 c17 -65 13 -78 -19 -64 -9 4 -24 6 -34 5 -9 -1 -19 3 -23 9 -5 8 -11 8
-21 -1 -17 -14 -15 -17 -44 51 -12 30 -31 66 -41 79 -24 30 -19 37 25 38 26 1
37 -4 41 -17z"/>
<path d="M2086 3642 c-3 -5 -18 -7 -34 -4 -17 2 -40 -2 -53 -9 -13 -7 -36 -12
-51 -10 -14 1 -29 -3 -33 -9 -3 -5 -10 -8 -14 -5 -5 2 -17 -5 -27 -16 -28 -31
-27 -107 2 -136 13 -13 27 -23 31 -23 5 0 13 -10 18 -22 19 -43 121 -38 139 7
7 19 26 20 26 2 0 -26 36 -47 79 -47 36 0 44 4 59 30 19 33 32 34 47 4 14 -26
68 -28 59 -2 -4 14 0 18 19 18 13 0 31 8 40 18 28 30 20 63 -24 110 -38 39
-62 49 -108 43 -7 -2 -10 2 -6 8 3 6 -2 11 -13 11 -11 0 -35 7 -55 15 -31 13
-36 13 -47 0 -7 -8 -18 -15 -24 -14 -6 0 -6 3 2 6 10 4 10 8 1 19 -13 16 -25
18 -33 6z m-88 -108 c33 -9 27 -24 -8 -20 -20 2 -30 -1 -30 -10 0 -8 -5 -14
-11 -14 -12 0 -38 29 -39 43 0 8 56 9 88 1z"/>
<path d="M2955 3620 c-4 -6 -11 -8 -16 -4 -14 8 -142 -43 -188 -76 -29 -22
-42 -39 -47 -65 -7 -41 3 -57 38 -60 15 -1 22 -8 20 -19 -4 -24 27 -20 56 7
15 13 26 18 29 11 14 -40 34 -49 100 -46 26 2 34 7 39 27 7 28 25 32 44 10 14
-16 105 -21 114 -6 14 22 -69 66 -144 75 -120 15 -133 23 -80 51 16 8 55 15
90 15 43 0 59 4 58 13 -2 6 5 11 15 9 30 -5 19 7 -23 25 -22 10 -40 21 -40 26
0 4 -4 5 -10 2 -5 -3 -18 -1 -29 5 -13 7 -22 7 -26 0z"/>
<path d="M3533 3548 c-8 -10 -3 -22 19 -48 l29 -35 -3 45 c-3 47 -24 64 -45
38z"/>
<path d="M3397 3372 c-11 -12 -13 -22 -7 -32 7 -10 10 -11 10 -2 0 6 6 12 14
12 15 0 28 24 19 34 -10 10 -19 7 -36 -12z"/>
<path d="M2350 2875 c0 -22 43 -62 87 -81 29 -13 52 -29 51 -36 -2 -9 10 -13
37 -12 72 2 75 4 85 29 5 14 17 25 25 25 24 0 92 37 98 55 10 24 -31 19 -67
-9 -31 -23 -34 -23 -99 -11 -37 7 -74 18 -82 25 -8 7 -15 9 -15 4 0 -4 -5 -3
-12 4 -12 12 -108 18 -108 7z"/>
<path d="M1947 2650 c7 -47 12 -53 30 -39 12 10 16 10 24 -2 12 -20 11 -5 -2
25 -7 14 -16 23 -21 20 -4 -3 -6 -10 -3 -15 4 -5 3 -14 -1 -21 -5 -7 -12 3
-20 28 -13 39 -13 39 -7 4z"/>
<path d="M2273 2644 c-10 -4 -10 -9 1 -20 16 -15 49 -8 43 10 -4 12 -26 17
-44 10z"/>
<path d="M2232 2598 c-16 -16 -15 -28 2 -28 16 0 29 27 17 34 -4 3 -13 0 -19
-6z"/>
<path d="M2596 2566 c-29 -9 -52 -10 -84 -2 -31 7 -66 6 -120 -2 -42 -7 -99
-14 -127 -16 -27 -2 -51 -9 -53 -15 -2 -6 -8 -9 -13 -5 -5 3 -9 1 -9 -4 0 -6
7 -12 15 -16 9 -3 15 0 15 8 0 10 18 9 83 -6 100 -23 256 -24 342 -2 33 8 89
21 125 29 162 37 162 41 7 42 -87 0 -157 -4 -181 -11z"/>
<path d="M2552 2394 c11 -12 25 -14 47 -9 47 10 37 25 -16 25 -43 0 -46 -1
-31 -16z"/>
<path d="M2510 2378 c-14 -5 -38 -7 -55 -3 -23 4 -27 3 -17 -7 16 -16 88 -16
103 -1 16 16 -2 22 -31 11z"/>
<path d="M2630 2376 c0 -2 9 -6 20 -9 11 -3 18 -1 14 4 -5 9 -34 13 -34 5z"/>
<path d="M2015 2120 c-3 -5 -1 -10 4 -10 6 0 11 5 11 10 0 6 -2 10 -4 10 -3 0
-8 -4 -11 -10z"/>
<path d="M2015 2090 c3 -5 11 -10 16 -10 6 0 7 5 4 10 -3 6 -11 10 -16 10 -6
0 -7 -4 -4 -10z"/>
<path d="M3266 314 c-3 -9 -2 -23 4 -32 7 -14 9 -10 10 16 0 35 -5 41 -14 16z"/>
<path d="M4128 184 c2 -13 8 -24 13 -24 14 0 10 37 -4 43 -10 4 -13 -2 -9 -19z"/>
<path d="M4184 184 c3 -9 6 -18 6 -20 0 -2 7 -4 15 -4 18 0 19 12 3 28 -17 17
-31 15 -24 -4z"/>
</g>
</svg>
